<svg width="157" height="42" viewBox="0 0 157 42" fill="none" xmlns="http://www.w3.org/2000/svg">
<path d="M0 37.0798C0 36.742 0.282723 36.4683 0.63168 36.4683H1.81746C2.72634 36.4683 4.54441 36.2723 4.54441 33.9205V12.7524C4.54441 11.4782 4.45334 8.44029 2.18113 8.44029H0.961932C0.532328 8.44029 0.228141 8.03416 0.361529 7.63873L2.31207 1.85204C2.39701 1.60029 2.63926 1.43018 2.91247 1.43018H141.646C141.995 1.43018 142.278 1.7039 142.278 2.04174V7.82843C142.278 8.16627 141.995 8.43999 141.646 8.43999H13.6335C12.4521 8.43999 10.9072 8.7339 10.9072 11.2817V17.9459C11.1798 18.7297 12.2705 19.0236 12.8157 19.0236C13.3272 19.0236 15.0364 18.9378 15.248 16.2621C15.2732 15.9423 15.5402 15.6918 15.8714 15.6918H17.3651C17.714 15.6918 17.9967 15.9655 17.9967 16.3033V25.958C17.9967 26.2958 17.714 26.5695 17.3651 26.5695H15.8193C15.5249 26.5695 15.2753 26.3727 15.2054 26.0954C14.9634 25.1345 14.0635 23.9291 12.9068 23.8252C11.8161 23.727 10.9072 24.1191 10.9072 25.6872V33.9193C10.9072 34.8013 11.9072 36.4671 14.2701 36.4671H15.2744C15.6233 36.4671 15.9061 36.7408 15.9061 37.0786V40.8783C15.9061 41.2162 15.6233 41.4899 15.2744 41.4899H0.63168C0.282723 41.4899 0 41.2162 0 40.8783V37.0798Z" fill="#C1C1C1"/>
<path d="M92.7784 16.4767V27.2575H86.4163V22.0521C86.4163 22.0521 86.1446 20.1895 85.2348 20.0918C85.1685 20.0856 85.0959 20.0888 85.0167 20.104C83.9996 20.2845 81.9178 22.1224 81.3269 23.0309V34.8025C81.3269 36.3531 82.5274 36.8884 83.2192 37.0689C83.4973 37.1392 83.6899 37.3809 83.6899 37.6591V40.8796C83.6899 41.2174 83.4072 41.4911 83.0582 41.4911H73.2338C72.8863 41.4911 72.6021 41.2159 72.6021 40.8796V37.6243C72.6021 37.3191 72.8351 37.065 73.147 37.0199C74.054 36.889 74.8884 36.3721 74.9651 34.9008V18.3396C74.9651 18.095 74.7851 17.6271 74.3965 17.2234C74.0936 16.9063 73.6637 16.6267 73.0964 16.5216C72.806 16.4678 72.6024 16.2119 72.6024 15.9257V14.1498C72.6024 13.812 72.8851 13.5383 73.2341 13.5383H80.1743C80.4493 13.5383 80.6808 13.7146 80.7759 13.9649C81.0126 14.5883 81.6992 15.1399 82.1457 15.2999C82.7838 14.8107 86.1449 12.7524 88.7795 12.7524C91.417 12.7516 92.7784 14.2226 92.7784 16.4767Z" fill="#C1C1C1"/>
<path d="M156.782 14.1493V15.9324C156.782 16.2198 156.573 16.4676 156.28 16.5288C155.288 16.7336 154.419 17.5257 154.419 18.5351V34.8024C154.419 35.9738 155.351 36.8606 156.302 37.093C156.583 37.1634 156.782 37.4051 156.782 37.6865V40.8794C156.782 41.2172 156.499 41.491 156.15 41.491H146.326C145.977 41.491 145.694 41.2172 145.694 40.8794V37.5241C145.694 37.2599 145.868 37.0271 146.127 36.9443C146.331 36.8793 146.585 36.7816 146.841 36.6406C147.422 36.3226 148.013 35.7844 148.057 34.9003V18.3394C148.057 18.0948 147.877 17.6269 147.488 17.2232C147.185 16.9061 146.755 16.6265 146.188 16.5214C145.898 16.4676 145.694 16.2117 145.694 15.9256V14.1496C145.694 13.8118 145.977 13.5381 146.326 13.5381H156.15C156.499 13.5378 156.782 13.8118 156.782 14.1493Z" fill="#C1C1C1"/>
<path d="M68.2398 16.4767V26.6459C68.2398 26.9837 67.9571 27.2574 67.6081 27.2574H62.5096C62.1606 27.2574 61.8779 26.9837 61.8779 26.6459V22.0523C61.8779 22.0523 61.6062 20.1897 60.6964 20.0921C60.6333 20.0858 60.5606 20.0891 60.4815 20.1042C59.5214 20.2711 57.619 21.9083 56.9082 22.8604C56.83 22.9652 56.7889 23.0902 56.7889 23.2194V34.8025C56.7889 35.4907 57.1078 36.0779 57.5629 36.4938C57.8855 36.7886 58.2746 36.9976 58.6686 37.0938C58.9513 37.1633 59.1519 37.404 59.1519 37.6864V40.8793C59.1519 41.2171 58.8692 41.4908 58.5202 41.4908H48.6958C48.3468 41.4908 48.0641 41.2171 48.0641 40.8793V37.624C48.0641 37.3188 48.2971 37.0647 48.6093 37.0196C48.9726 36.9673 49.3237 36.853 49.6215 36.6405C50.0637 36.3225 50.3795 35.7843 50.427 34.9002V18.3393C50.427 18.0947 50.2437 17.6268 49.8585 17.2231C49.5571 16.9102 49.1364 16.6341 48.5814 16.5254C48.2833 16.4672 48.0644 16.2199 48.0644 15.9254V14.1495C48.0644 13.8117 48.3471 13.538 48.6961 13.538H55.6335C55.9086 13.538 56.1398 13.714 56.2348 13.964C56.4722 14.5877 57.1609 15.1393 57.6073 15.2993C58.2424 14.8101 61.6065 12.7518 64.2412 12.7518C66.8749 12.7515 68.2398 14.2226 68.2398 16.4767Z" fill="#C1C1C1"/>
<path d="M141.97 16.4767V27.2574H135.608V22.052C135.608 22.052 135.333 20.1894 134.426 20.0918C134.353 20.0826 134.268 20.0888 134.176 20.1102C134.173 20.1072 134.17 20.1102 134.167 20.1102C133.131 20.3334 131.1 22.1349 130.515 23.0308V34.8025C130.515 35.613 130.809 36.1453 131.188 36.4938C131.567 36.8424 132.031 37.0077 132.379 37.084C132.67 37.1514 132.878 37.3928 132.878 37.6834V40.8793C132.878 41.2156 132.597 41.4908 132.246 41.4908H122.422C122.075 41.4908 121.79 41.2156 121.79 40.8793V37.6219C121.79 37.3191 122.024 37.0653 122.337 37.0196C123.243 36.8881 124.077 36.3712 124.153 34.9002V18.3393C124.153 17.6909 123.863 17.2688 123.49 16.9936C123.111 16.7184 122.65 16.5898 122.302 16.5287C122.006 16.4767 121.791 16.2199 121.791 15.9263V14.1495C121.791 13.8102 122.075 13.538 122.422 13.538H129.343C129.637 13.538 129.89 13.7336 129.96 14.0088C130.089 14.5319 130.437 15.2993 131.334 15.2993C131.972 14.8101 135.333 12.7518 137.97 12.7518C140.605 12.7515 141.97 14.2226 141.97 16.4767Z" fill="#C1C1C1"/>
<path d="M37.5328 31.7641C37.1839 31.7641 36.9011 32.0378 36.9011 32.3756V32.7461V33.3811C36.9011 34.4588 36.7196 35.049 33.72 35.049C30.7205 35.049 29.8119 32.8931 29.8119 31.3247V29.3113V28.4316C29.8119 27.9418 30.1756 28.1354 30.8119 28.1354H42.6316C42.9806 28.1354 43.2633 27.8616 43.2633 27.5238V20.1019C43.2633 16.8681 42.627 15.8878 41.3548 14.5162C40.0822 13.1441 35.6289 12.7522 33.6293 12.7522C28.5397 12.7522 26.9034 13.5362 25.4496 14.8101C23.9952 16.0843 23.45 18.7301 23.45 20.6903V31.7644C23.45 34.7043 24.1004 36.8053 25.7235 38.7537C27.9843 41.4674 32.7207 41.4668 33.8114 41.4668C34.9018 41.4668 38.5377 41.5651 41.1732 39.5069C43.2915 37.853 43.355 33.8561 43.2986 32.3513C43.2863 32.0232 43.0063 31.7647 42.6672 31.7647L37.5328 31.7641ZM29.8116 20.2946C29.8116 19.3182 30.266 17.8531 33.4471 17.8531C36.6282 17.8531 36.9008 19.4402 36.9008 20.2946V22.4921C36.9008 22.8581 36.4464 23.2245 35.8104 23.2245H30.902C30.3565 23.2245 29.8116 22.9193 29.8116 22.5529V20.2946Z" fill="#C1C1C1"/>
<path d="M116.156 34.8019V20.1019C116.156 17.848 116.066 15.4959 113.884 13.8298C111.703 12.164 108.158 12.2617 106.795 12.2617C105.432 12.2617 100.888 12.2617 98.7965 14.8095C96.7062 17.3576 97.0698 19.8074 97.0698 20.7874H103.567C103.567 20.7874 103.432 19.7406 104.25 18.8586C105.073 17.9709 107.25 16.9966 108.931 18.5646C109.55 19.1427 109.794 19.8878 109.794 20.7209V22.6494C109.794 23.0415 109.43 23.6293 108.976 23.6293C108.976 23.6293 100.705 23.8256 99.251 25.0015C97.7966 26.1774 96.5243 26.9612 96.5243 31.2736C96.5243 35.5857 97.524 38.7465 98.7055 39.6288C99.887 40.5108 100.432 41.4908 105.795 41.4908H118.519V37.1541C117.429 37.1541 116.156 36.1741 116.156 34.8019ZM109.794 34.7984C109.794 34.9323 109.43 35.1202 109.158 35.1202H106.022C103.795 35.1202 103.159 33.9935 103.159 33.2962V31.2308C103.159 29.2189 106.704 29.2729 108.112 29.2729C109.521 29.2729 109.794 29.9703 109.794 30.4263V34.7984H109.794Z" fill="#C1C1C1"/>
<path d="M151.239 8.39137C154.421 8.39137 157 6.62674 157 4.45035C157 2.27366 154.421 0.509033 151.239 0.509033C148.058 0.509033 145.479 2.27366 145.479 4.45035C145.479 6.62674 148.058 8.39137 151.239 8.39137Z" fill="#C1C1C1"/>
<path d="M15.9054 37.0808V40.8793C15.9054 41.2157 15.6242 41.4909 15.2738 41.4909H12.4306V36.05C12.9138 36.3039 13.5234 36.4689 14.2692 36.4689H15.2738C15.6242 36.4692 15.9054 36.7412 15.9054 37.0808Z" fill="#C1C1C1"/>
<path d="M14.5213 18.309V24.7842C14.8576 25.193 15.0984 25.673 15.206 26.1032C15.2747 26.3775 15.5261 26.5696 15.8174 26.5696H17.3641C17.7131 26.5696 17.9958 26.2958 17.9958 25.958V16.3033C17.9958 15.9655 17.7131 15.6918 17.3641 15.6918H15.8778C15.5513 15.6918 15.2731 15.9328 15.2489 16.2481C15.171 17.2581 14.8806 17.8999 14.5213 18.309Z" fill="#C1C1C1"/>
<path d="M138.803 1.43018V8.44029H141.646C141.995 8.44029 142.278 8.16657 142.278 7.82872V2.04204C142.278 1.70419 141.995 1.43047 141.646 1.43047H138.803V1.43018Z" fill="#C1C1C1"/>
<path d="M88.7804 12.7522C88.2119 12.7522 87.6093 12.8517 87.0077 13.0069C88.5253 13.519 89.3048 14.773 89.3048 16.4762V27.2563H92.7796V16.4762C92.7793 14.222 91.4163 12.7522 88.7804 12.7522Z" fill="#C1C1C1"/>
<path d="M154.419 18.535V34.8023C154.419 35.9738 155.351 36.8605 156.302 37.093C156.583 37.1633 156.782 37.405 156.782 37.6864V40.8793C156.782 41.2157 156.501 41.4909 156.15 41.4909H153.307V37.1541C152.217 37.1541 150.944 36.1753 150.944 34.8023V18.535C150.944 17.5256 151.813 16.7336 152.805 16.5287C153.099 16.4676 153.307 16.22 153.307 15.9323V13.5377H156.15C156.501 13.5377 156.782 13.81 156.782 14.1493V15.9323C156.782 16.2197 156.573 16.4676 156.28 16.5287C155.288 16.7336 154.419 17.5256 154.419 18.535Z" fill="#C1C1C1"/>
<path d="M56.9079 22.8602C56.8297 22.965 56.7886 23.09 56.7886 23.2191V34.8023C56.7886 35.4904 57.1075 36.0776 57.5626 36.4936C57.8852 36.7884 58.2743 36.9974 58.6683 37.0936C58.951 37.163 59.1516 37.4038 59.1516 37.6861V40.879C59.1516 41.2169 58.8689 41.4906 58.5199 41.4906H55.6767V37.1538C54.5869 37.1538 53.3138 36.175 53.3138 34.802V25.4724C53.3138 21.9681 58.9575 20.1651 60.4941 20.0883C60.4876 20.0912 60.4846 20.0975 60.4815 20.1037C59.5214 20.2708 57.6187 21.9081 56.9079 22.8602Z" fill="#C1C1C1"/>
<path d="M81.3272 23.0305V34.8022C81.3272 36.3528 82.5277 36.888 83.2195 37.0685C83.4976 37.1389 83.6902 37.3805 83.6902 37.6587V40.8792C83.6902 41.2171 83.4074 41.4908 83.0585 41.4908H80.2123V37.6863C80.2123 37.404 80.0117 37.1629 79.729 37.0937C78.7787 36.8607 77.8493 35.9757 77.8493 34.8025V25.4714C77.8493 21.9695 83.4912 20.165 85.0296 20.0887C85.0231 20.0917 85.0201 20.0979 85.017 20.1042C83.9996 20.2841 81.9181 22.1223 81.3272 23.0305Z" fill="#C1C1C1"/>
<path d="M134.205 20.0886C134.198 20.0916 134.195 20.0978 134.192 20.1041C134.186 20.1041 134.183 20.107 134.176 20.1103C134.173 20.1073 134.17 20.1103 134.167 20.1103C133.131 20.3335 131.1 22.135 130.515 23.031V34.8026C130.515 35.6131 130.809 36.1454 131.188 36.4939C131.567 36.8425 132.031 37.0078 132.379 37.0841C132.67 37.1515 132.878 37.3929 132.878 37.6835V40.8794C132.878 41.2157 132.597 41.4909 132.246 41.4909H129.388V37.6865C129.388 37.405 129.186 37.1634 128.904 37.093C127.953 36.8606 127.025 35.9768 127.025 34.8023V25.4713C127.025 21.9696 132.667 20.1652 134.205 20.0886Z" fill="#C1C1C1"/>
<path d="M64.2406 12.7522C63.6721 12.7522 63.0695 12.8517 62.4679 13.0069C63.9854 13.519 64.7649 14.773 64.7649 16.4762V27.2563H67.6081C67.9571 27.2563 68.2398 26.9826 68.2398 26.6447V16.4765C68.2398 14.222 66.8761 12.7522 64.2406 12.7522Z" fill="#C1C1C1"/>
<path d="M137.97 12.7522C137.401 12.7522 136.798 12.8517 136.197 13.0069C137.714 13.519 138.494 14.773 138.494 16.4762V27.2563H141.969V16.4762C141.969 14.222 140.605 12.7522 137.97 12.7522Z" fill="#C1C1C1"/>
<path d="M37.8796 14.4998C39.1522 15.8714 39.7881 16.8517 39.7881 20.0855V28.1192H42.6313C42.9803 28.1192 43.263 27.8455 43.263 27.5077V20.0858C43.263 16.852 42.6267 15.8717 41.3545 14.5001C40.0819 13.128 35.6286 12.7361 33.629 12.7361C32.8759 12.7361 32.1997 12.7539 31.5873 12.7871C33.7933 12.9296 36.8594 13.399 37.8796 14.4998Z" fill="#C1C1C1"/>
<path d="M42.6666 31.7637H39.7881C39.7881 31.7637 40.3337 37.4482 37.6975 39.5062C35.9607 40.8623 33.7936 41.2803 32.2028 41.4091C32.9304 41.4661 33.5097 41.4664 33.8105 41.4664C34.9009 41.4664 38.5367 41.5644 41.1723 39.5065C43.2906 37.8526 43.3541 33.8558 43.2976 32.3506C43.286 32.0223 43.006 31.7637 42.6666 31.7637Z" fill="#C1C1C1"/>
<path d="M116.156 34.8019V20.1019C116.156 17.848 116.066 15.4959 113.884 13.8298C111.703 12.164 108.158 12.2617 106.795 12.2617C106.459 12.2617 105.929 12.2617 105.291 12.3C106.906 12.395 108.958 12.7213 110.41 13.8295C112.591 15.4956 112.682 17.8477 112.682 20.1016V34.8016C112.682 36.1735 113.954 37.1535 115.045 37.1535V41.4902H118.52V37.1535C117.429 37.1541 116.156 36.1741 116.156 34.8019Z" fill="#C1C1C1"/>
<path d="M151.239 0.509033C150.634 0.509033 150.05 0.573454 149.502 0.692501C151.834 1.19659 153.525 2.6881 153.525 4.45035C153.525 6.2123 151.834 7.7038 149.502 8.20819C150.05 8.32694 150.634 8.39137 151.239 8.39137C154.421 8.39137 157 6.62674 157 4.45035C157 2.27366 154.421 0.509033 151.239 0.509033Z" fill="#C1C1C1"/>
</svg>
